<svg width="516" height="250" fill="none" xmlns="http://www.w3.org/2000/svg"><g clip-path="url(#clip0_491_1849)" fill="#393939"><path d="M25.086 195.752h2.243l-9.68 15.067a10.628 10.628 0 01-2.597 2.895 5.257 5.257 0 01-3.306.946 5.897 5.897 0 01-2.125-.355v-1.654a7.385 7.385 0 001.948 0 5.13 5.13 0 002.48-.532 5.901 5.901 0 001.77-1.891l.65-1.004-9.563-13.708H9.15l7.378 10.635c0 .473.473.827.59 1.123.071.251.071.517 0 .768h.296a4.26 4.26 0 01.767-1.891l6.906-10.399zm26.738 9.218a4.48 4.48 0 013.07 1.3 4.368 4.368 0 011.18 3.131 4.437 4.437 0 01-1.594 3.664 7.844 7.844 0 01-5.017 1.299H35.946v-18.612h13.458a6.844 6.844 0 014.427 1.241 4.306 4.306 0 011.476 3.427 4.02 4.02 0 01-1.004 2.895 4.068 4.068 0 01-2.538 1.3l.06.355zm-13.93-7.681v6.735h11.51a4.361 4.361 0 003.07-.945 3.01 3.01 0 001.062-2.423 3.135 3.135 0 00-1.063-2.481 4.656 4.656 0 00-3.069-.886h-11.51zM49.7 212.533a5.43 5.43 0 003.424-.886 2.957 2.957 0 001.121-2.541 3.073 3.073 0 00-1.121-2.6 5.43 5.43 0 00-3.424-.886H37.894v6.913H49.7zm13.457 1.89v-1.713c.431.057.868.057 1.299 0a2.729 2.729 0 002.066-.768c.57-.747.88-1.66.885-2.6l1.535-13.767h16.881v18.612h-1.948v-16.899H70.653l-1.357 12.408a5.913 5.913 0 01-1.417 3.605 3.959 3.959 0 01-3.07 1.24 5.88 5.88 0 01-1.652-.118zm53.596-.058h-2.066l-2.125-4.077H98.927l-2.125 4.077h-2.066l9.917-18.612h2.243l9.857 18.612zm-17-5.909h11.806l-5.136-9.749a5.265 5.265 0 01-.708-2.068 5.903 5.903 0 01-.649 2.068l-5.313 9.749zm41.14-3.722l11.806 9.631h-2.716l-11.451-9.336v9.336h-1.888v-9.336l-11.451 9.336h-2.715l11.805-9.631-11.333-8.981h2.656l10.979 8.804v-8.804h1.888v8.804l10.979-8.804h2.656l-11.215 8.981zm38.84-.827v-8.154h1.947v18.612h-1.947v-8.745h-16.291v8.745h-1.889v-18.612h1.948v8.154h16.232zm30.575-8.154v18.612h-1.948v-7.15h-8.795a9.438 9.438 0 00-2.125 0c-.474.071-.911.3-1.239.65-.427.434-.75.96-.945 1.537l-2.125 4.786h-2.066l2.125-4.609a7.321 7.321 0 011.417-2.186 3.954 3.954 0 011.889-.709v-.296a5.014 5.014 0 01-3.188-1.713 5.914 5.914 0 01-.413-6.441 5.898 5.898 0 012.42-1.949 8.972 8.972 0 013.778-.71l11.215.178zm-1.889 9.867v-8.331h-9.562a5.543 5.543 0 00-3.778 1.123 3.78 3.78 0 00-1.298 2.954 3.79 3.79 0 001.298 3.013 5.543 5.543 0 003.778 1.123l9.562.118zm36.301-8.922a8.855 8.855 0 013.895 3.427 9.101 9.101 0 011.358 4.905 9.452 9.452 0 01-1.358 4.963 8.855 8.855 0 01-3.895 3.427 13.812 13.812 0 01-5.903 1.241 14.621 14.621 0 01-5.902-1.123 9.447 9.447 0 01-3.896-3.132 8.986 8.986 0 01-1.594-4.608h-4.309v8.567h-1.888v-18.612h1.888v8.508h4.309a8.63 8.63 0 011.594-4.549 9.034 9.034 0 013.896-3.132 15.51 15.51 0 0111.805 0v.118zm-1.004 15.245a7.27 7.27 0 003.247-2.836 7.817 7.817 0 001.121-4.077 7.397 7.397 0 00-1.14-4.118 7.394 7.394 0 00-3.228-2.796 12.33 12.33 0 00-5.076-1.004 12.15 12.15 0 00-5.076 1.004 7.386 7.386 0 00-4.368 6.914 7.817 7.817 0 001.121 4.077 7.27 7.27 0 003.247 2.836 11.27 11.27 0 005.076 1.063 11.441 11.441 0 005.076-1.063zm43.265-16.19v16.899h3.01v6.44h-1.889v-4.727h-28.155v-18.612h1.948v16.899h10.743v-16.899h1.83v16.899h10.683v-16.899h1.83zm11.983 18.611v-18.612h1.83v14.003c.034.61.034 1.222 0 1.832a10.15 10.15 0 010 1.654l15.582-17.725h3.07v18.612h-1.889v-14.063a15.978 15.978 0 010-1.831v-1.596l-15.524 17.726h-3.069zm31.283.002v-18.613h1.83v14.004c.035.61.035 1.221 0 1.831v1.655l15.524-17.726h2.833v18.612h-1.889v-15.894c0-.532 0-1.004.295-1.595h-.295l-15.524 17.726h-2.774zm5.903-21.862a4.55 4.55 0 01-1.771-3.368h1.653a2.83 2.83 0 001.357 2.363 7.545 7.545 0 007.083 0 3.127 3.127 0 001.358-2.363h1.593a4.55 4.55 0 01-1.77 3.368 7.607 7.607 0 01-4.722 1.24 7.844 7.844 0 01-5.018-1.24h.237zm51.942 13.234h-15.76v-1.418h15.76v1.418zm23.61 8.627h-1.948v-18.612h15.937v1.536h-13.989v17.076zm41.318-18.612v1.537h-15.524v6.735h13.635v1.537h-13.635v6.972h15.524v1.713h-17.708v-18.612l17.708.118zm7.614 18.67v-1.713c.43.061.868.061 1.298 0a2.6 2.6 0 002.007-.768c.592-.74.924-1.653.945-2.6l1.534-13.767h16.823v18.612h-1.889v-16.899h-13.281l-1.358 12.408a6.327 6.327 0 01-1.357 3.605 4.077 4.077 0 01-3.129 1.24 5.876 5.876 0 01-1.593-.118zm44.86-12.112a7.968 7.968 0 015.371 1.596 5.907 5.907 0 011.83 4.431 5.912 5.912 0 01-1.83 4.373 7.73 7.73 0 01-5.371 1.654h-11.392v-18.612h1.947v6.558h9.445zm0 10.341a5.9 5.9 0 003.954-1.123 4.55 4.55 0 000-6.381 5.895 5.895 0 00-3.954-1.182h-9.504v8.686h9.504zM28.332 243.376h2.951v6.44h-1.83v-4.727H8.736v4.727h-1.89v-6.44h1.181a2.308 2.308 0 001.83-.768c.57-.747.881-1.66.885-2.6l1.535-13.531h16.055v16.899zm-1.889 0v-15.245H13.99l-1.299 11.818c0 1.89-.65 3.072-1.475 3.545l15.228-.118zm8.499 1.773v-1.714h1.299a2.652 2.652 0 002.066-.768c.57-.747.881-1.66.885-2.6l1.535-13.767h16.881v18.612H55.66v-16.957H42.44l-1.358 12.408a5.913 5.913 0 01-1.417 3.604 3.944 3.944 0 01-3.069 1.241 6.58 6.58 0 01-1.653-.059zm47.989-18.672v18.612h-1.889v-7.149H72.19a10.198 10.198 0 00-2.125 0 2.12 2.12 0 00-1.24.65c-.406.45-.726.97-.944 1.536l-2.125 4.786h-2.243l2.125-4.609a7.4 7.4 0 011.357-2.186 3.068 3.068 0 011.89-.709 4.72 4.72 0 01-3.13-1.714 5.201 5.201 0 01-1.239-3.545c0-1.023.287-2.026.826-2.895a5.2 5.2 0 012.362-1.95 8.984 8.984 0 013.777-.709l11.451-.118zm-1.83 9.867v-8.213h-9.62a5.547 5.547 0 00-3.778 1.123 3.725 3.725 0 00-1.24 2.954 3.79 3.79 0 001.24 3.014 5.9 5.9 0 003.777 1.122h9.621zm19.242 8.746v-18.612h2.184v14.003c.034.61.034 1.222 0 1.832a11.043 11.043 0 01-.295 1.654h.295l15.523-17.726h3.07v18.612h-1.83v-14.062a16.963 16.963 0 010-1.832c0-.473 0-1.004.295-1.595h-.295l-15.524 17.726h-3.423zm46.217-10.459v-8.154h1.889v18.612h-1.889v-8.745h-16.35v8.745h-1.889v-18.612h1.889v8.154h16.35zm18.18 10.458h-1.889v-16.958h-8.794v-1.654h19.301v1.654h-8.736l.118 16.958zm14.52.001v-18.612h1.83v14.003c.034.61.034 1.222 0 1.832v1.654l15.523-17.726h3.129v18.612h-1.889v-14.062a15.995 15.995 0 010-1.832 8.672 8.672 0 010-1.595h-.295l-15.524 17.726h-2.774zm27.801-.001v-18.612h3.128l8.263 12.467c.276.371.477.793.591 1.241a3.07 3.07 0 01.531-1.241l8.263-12.467h3.129v18.612h-1.83v-13.944a16.465 16.465 0 010-1.832V227.6l-9.208 13.826h-2.125l-9.031-13.826v1.654c.039.63.039 1.261 0 1.891v13.944h-1.711zm49.936-10.458v-8.154h1.947v18.612h-1.947v-8.745h-16.291v8.745h-1.948v-18.612h1.948v8.154h16.291zm13.87 9.454a8.853 8.853 0 01-4.014-3.427 8.695 8.695 0 01-1.416-4.904 9.044 9.044 0 015.43-8.331 15.452 15.452 0 016.434-1.241 15.04 15.04 0 016.434 1.241 9.033 9.033 0 014.072 3.427 8.808 8.808 0 011.417 4.904 8.688 8.688 0 01-1.417 4.904 9.033 9.033 0 01-4.072 3.427 14.203 14.203 0 01-6.434 1.3 14.566 14.566 0 01-6.434-1.3zm11.805-1.418a8.205 8.205 0 003.424-2.836 7.338 7.338 0 001.18-4.077 7.632 7.632 0 00-1.18-4.077 8.213 8.213 0 00-3.424-2.836 12.724 12.724 0 00-5.43-1.004 12.426 12.426 0 00-5.371 1.004 7.86 7.86 0 00-3.424 2.836 7.574 7.574 0 00-1.121 4.077 7.27 7.27 0 001.121 4.077 7.846 7.846 0 003.424 2.836 12.452 12.452 0 005.371 1.064 12.737 12.737 0 005.489-1.064h-.059zm13.045 2.422v-18.612h1.594v14.003c.034.611.034 1.222 0 1.832v1.655l15.523-17.726h3.129v18.612h-1.889V230.79a15.978 15.978 0 010-1.831 8.682 8.682 0 010-1.596h-.295l-15.524 17.726h-2.538zm5.902-21.862a4.43 4.43 0 01-1.829-3.368h1.652a3.078 3.078 0 001.358 2.364 7.555 7.555 0 007.083 0 3.076 3.076 0 001.358-2.364h1.652a4.599 4.599 0 01-1.83 3.368 10.024 10.024 0 01-9.444 0zm33.823 21.862h-1.889v-18.612h15.937v1.654h-14.048v16.958zm20.54.001v-18.612h1.889v14.003c.035.61.035 1.222 0 1.832a10.917 10.917 0 01-.295 1.654h.295l15.524-17.726h3.128v18.612h-1.889v-14.062a17.492 17.492 0 010-1.832c0-.473 0-1.004.296-1.595h-.296l-15.523 17.726h-3.129zm29.868-.001h-1.889v-18.612h15.937v1.654H385.85v16.958zm20.599.001v-18.612h1.83v14.003c.035.61.035 1.222 0 1.832v1.654l15.524-17.726h3.364v18.612h-1.889v-15.894c0-.532 0-1.004.295-1.595h-.295l-15.523 17.726h-3.306zm45.39-18.613v1.654h-15.582v6.677h13.694v1.595h-13.694v6.973h15.582v1.713h-17.707v-18.612h17.707zm25.027 8.154v-8.154h1.948v18.612h-1.948v-8.745h-16.291v8.745h-1.948v-18.612h1.948v8.154h16.291zm20.482-1.595a7.963 7.963 0 015.372 1.595 5.902 5.902 0 011.829 4.431 5.438 5.438 0 01-1.829 4.373 7.786 7.786 0 01-5.372 1.654h-11.156v-18.612h1.948v6.559h9.208zm0 10.34a5.897 5.897 0 003.955-1.123 4.44 4.44 0 001.002-4.924 4.44 4.44 0 00-1.002-1.457 5.896 5.896 0 00-3.955-1.182h-9.149v8.686h9.149zm11.451 1.713v-18.612h1.889v18.612h-1.889zM21.662 25.17v-3.308h28.922V41.95h-3.955l.945-11.522h-.65a17.256 17.256 0 01-3.6 5.495 19.299 19.299 0 01-7.142 4.727 28.541 28.541 0 01-11.156 1.95 29.487 29.487 0 01-13.34-2.777 20.31 20.31 0 01-8.676-7.622 21.228 21.228 0 010-21.803 20.606 20.606 0 018.912-7.622A31.492 31.492 0 0125.852 0 30.256 30.256 0 0143.56 4.609a19.44 19.44 0 018.087 11.817h-4.25a16.01 16.01 0 00-6.965-9.395 26.009 26.009 0 00-14.698-3.604A27.01 27.01 0 0013.93 5.73a17.713 17.713 0 00-7.437 6.322 16.32 16.32 0 00-2.538 9.04 16.675 16.675 0 002.538 9.1 17.713 17.713 0 007.496 6.617 26.774 26.774 0 0011.805 2.305 25.005 25.005 0 0010.802-2.127 19.185 19.185 0 006.906-5.14 14.897 14.897 0 003.07-6.5l-24.91-.177zM110.26.65v3.722H75.789v14.89h30.339v3.427h-30.34v15.54h34.472v3.722H71.54V.59l38.72.058zm57.195 41.3h-36.183V.59h4.25v37.58h31.933v3.78zM249.736.65v3.722h-33.29v17.371h29.159v3.545h-29.159v16.663h-4.25V.59l37.54.058zm27.625 39.173a20.128 20.128 0 01-8.972-7.622 20.875 20.875 0 010-21.803 20.128 20.128 0 018.972-7.622 38.152 38.152 0 0128.568 0 20.603 20.603 0 019.09 7.622 20.575 20.575 0 010 21.803 20.609 20.609 0 01-9.031 7.622 38.152 38.152 0 01-28.568 0h-.059zm26.266-3.19a16.942 16.942 0 007.614-6.323 16.91 16.91 0 000-17.725 16.942 16.942 0 00-7.614-6.323 32.314 32.314 0 00-23.964 0 17.125 17.125 0 00-7.556 6.323 17.274 17.274 0 000 17.725 17.126 17.126 0 007.497 6.323 32.314 32.314 0 0023.964 0h.059zm78.208 5.317h-4.958l-4.781-10.635a10.679 10.679 0 00-2.066-3.368 5.898 5.898 0 00-2.774-1.477 23.119 23.119 0 00-4.722-.414h-20.246V41.95h-4.19V.59h26.03a20.108 20.108 0 018.44 1.596 12.1 12.1 0 015.254 4.372 11.83 11.83 0 011.77 6.44 11.82 11.82 0 01-2.715 7.859 10.62 10.62 0 01-6.965 3.781v.65a7.076 7.076 0 014.132 1.596 14.523 14.523 0 013.069 4.845l4.722 10.221zM342.17 22.511h21.958a12.266 12.266 0 008.322-2.422 9.097 9.097 0 002.883-6.648 9.105 9.105 0 00-2.883-6.647 12.62 12.62 0 00-8.322-2.422H342.17v18.14zm122.182 6.146h-48.991v-3.132h49.11l-.119 3.132zM49.405 87.683H.355v-3.072h49.05v3.072zm56.723 13.295h-33.94v-3.723h14.875V63.4H72.189v-3.723h33.939V63.4H91.254v33.856h14.874v3.723zm16.645 0v-41.36h6.847l34.471 38.819h.649c0-1.3-.472-2.54-.59-3.604a38.504 38.504 0 010-4.077v-31.08h4.132v41.361h-6.729l-34.471-38.82h-.944c.272 1.205.45 2.43.531 3.663.073 1.339.073 2.68 0 4.018v31.139l-3.896-.059zm82.99 0h-4.249v-37.58h-19.479v-3.722h43.089V63.4h-19.361v37.579zm64.573 0h-33.998v-3.723h14.874V63.4h-14.874v-3.723h33.998V63.4h-14.874v33.856h14.874v3.723zm16.587 0v-41.36h6.965l18.357 27.651a7.084 7.084 0 011.239 2.837h.65a6.44 6.44 0 011.239-2.837l18.357-27.652h6.906v41.361h-4.073V65.999c0-1.123 0-2.364.472-3.841h-.531l-20.423 30.725h-4.722l-20.422-30.725h-.65c0 1.359.413 2.54.531 3.663.119 1.123 0 2.541 0 4.314v30.843h-3.895zm116.634 0h-4.604l-4.663-9.04h-30.28l-4.722 9.04h-4.604l22.016-41.36h4.899l21.958 41.36zm-37.718-12.527h26.621l-11.451-21.684a12.478 12.478 0 01-1.535-4.55h-.649a12.459 12.459 0 01-1.535 4.55L365.839 88.45zm66.287 12.527h-4.25v-37.58h-19.479v-3.722h43.148V63.4h-19.419v37.579zm72.128-41.302V63.4h-34.53v14.89h30.398v3.486h-30.398v15.48h34.53v3.723h-38.779v-41.36l38.779.058zm-461.52 77.228v-18.199h4.25v41.36h-4.25v-19.38H6.492v19.38H2.184v-41.36h4.25v18.199h36.3zm31.402 23.102v-14.003l-20.895-27.298h5.017l15.76 20.858 1.417 2.245c.275.468.436.994.472 1.536h.65a3.014 3.014 0 01.471-1.595c.402-.786.898-1.52 1.476-2.186l15.642-20.858h5.017l-20.777 27.298v14.003h-4.25zm48.341-16.721v-3.309h28.982v20.03h-3.955l.944-11.817h-.649a18.308 18.308 0 01-3.6 5.495 19.838 19.838 0 01-7.142 4.727 28.676 28.676 0 01-11.215 1.95 29.502 29.502 0 01-13.34-2.777 20.319 20.319 0 01-8.677-7.622 20.343 20.343 0 011.901-24.415 20.306 20.306 0 017.012-5.128 32.553 32.553 0 0113.93-2.778 30.263 30.263 0 0117.708 4.609 19.736 19.736 0 018.145 11.817h-4.25a16.065 16.065 0 00-7.024-9.394 26.005 26.005 0 00-14.697-3.605 27.005 27.005 0 00-11.805 2.305 17.7 17.7 0 00-7.437 6.322 16.782 16.782 0 00-2.538 9.04c-.058 3.28.86 6.503 2.636 9.259a16.537 16.537 0 007.339 6.222 26.65 26.65 0 0011.51 2.304 25.242 25.242 0 0010.861-2.127 18.905 18.905 0 006.906-5.318 16.494 16.494 0 003.069-6.44l-24.614.65zm69.592 16.721h-33.94v-3.722h14.815v-33.856h-14.815v-3.723h33.94v3.723h-14.875v33.856h14.875v3.722zm47.987-41.303v3.723h-34.471v14.889h30.339v3.486h-30.339v15.481h34.471v3.722h-38.721v-41.36l38.721.059zm9.267 41.301v-41.36h6.67l34.471 38.82h.944c0-1.3-.472-2.541-.59-3.605a38.504 38.504 0 010-4.077v-31.079h4.132v41.36h-6.847l-34.471-38.819h-.59c.272 1.205.45 2.43.531 3.663.073 1.338.073 2.68 0 4.018v31.138l-4.25-.059zm94.854-41.301v3.723h-34.471v14.889h30.339v3.486h-30.339v15.481h34.471v3.722h-38.721v-41.36l38.721.059z"/></g><defs><clipPath id="clip0_491_1849"><path fill="#fff" d="M0 0h516v249.816H0z"/></clipPath></defs></svg>