<svg width="371" height="75" fill="none" xmlns="http://www.w3.org/2000/svg"><g clip-path="url(#clip0_499_1891)"><path d="M3.988 38.93h26.619v3.629H0V0h3.988v38.93zm166.254-10.527V0h3.988v28.539a12.93 12.93 0 01-1.116 6.147 12.772 12.772 0 01-3.858 4.878 23.357 23.357 0 01-12.637 3.72c-4.476 0-8.859-1.29-12.637-3.72a12.765 12.765 0 01-3.859-4.878 12.93 12.93 0 01-1.115-6.147V0h3.988v28.403a9.623 9.623 0 00.895 4.659 9.494 9.494 0 003.004 3.644 18.071 18.071 0 009.746 2.858c3.451 0 6.83-.991 9.747-2.858a9.686 9.686 0 002.956-3.662 9.811 9.811 0 00.898-4.641zM206.584 0h15.191c2.788-.122 5.57.353 8.164 1.392a19.84 19.84 0 016.893 4.643 23.584 23.584 0 015.652 15.335 23.584 23.584 0 01-5.652 15.336 19.968 19.968 0 01-6.903 4.606 19.764 19.764 0 01-8.154 1.383h-15.191V0zm27.335 34.03a20.3 20.3 0 004.437-12.682 20.3 20.3 0 00-4.437-12.682 15.59 15.59 0 00-5.529-3.85 15.422 15.422 0 00-6.615-1.14h-11.248v35.253h11.248a15.424 15.424 0 006.604-1.099 15.58 15.58 0 005.54-3.8zm71.341 8.665h-30.472V0h30.428v3.675h-26.44v15.29h22.899v3.676h-22.854v16.288h26.439v3.766zm65.785 0h-4.481L355.45 25.862h-13.936v16.833h-3.989V0h16.805c3.868-.23 7.683.999 10.71 3.448a11.98 11.98 0 012.99 4.324c.666 1.648.962 3.426.864 5.204a14.848 14.848 0 01-.807 4.946 10.552 10.552 0 01-2.195 3.63 14.545 14.545 0 01-2.6 2.132 8.061 8.061 0 01-3.361 1.633l11.114 17.378zm-29.442-39.02v18.557h12.817c2.778.16 5.518-.71 7.707-2.45a8.657 8.657 0 002.139-3.09 8.765 8.765 0 00.64-3.716 8.86 8.86 0 00-.639-3.737 8.751 8.751 0 00-2.14-3.114 11.507 11.507 0 00-7.707-2.45h-12.817z" fill="#1D1D1B"/><path d="M106.115 21.643a31.268 31.268 0 01-1.792 5.49 28.324 28.324 0 01-3.406 5.807 27.516 27.516 0 01-5.019 5.218 23.88 23.88 0 01-6.9 3.72 26.583 26.583 0 01-8.963 1.407A18.555 18.555 0 0169.1 40.381a13.303 13.303 0 01-4.93-7.44 21.765 21.765 0 01-.448-11.298 29.155 29.155 0 013.63-9.075 27.11 27.11 0 016.856-7.713A24.175 24.175 0 0189.49-.091a21.547 21.547 0 019.5 1.906 12.077 12.077 0 015.512 5.354 21.242 21.242 0 011.613 14.474zm-5.287 0a22.954 22.954 0 00-1.031-15.155 11.138 11.138 0 00-4.479-4.511A10.954 10.954 0 0089.132.68a17.424 17.424 0 00-7.056 1.444 17.612 17.612 0 00-5.895 4.182 30.865 30.865 0 00-7.529 15.336c-1.658 7.94-.537 13.929 3.406 17.876a10.916 10.916 0 003.762 2.4 10.81 10.81 0 004.394.686 17.03 17.03 0 007.439-1.725 19.377 19.377 0 006.05-4.537 31.24 31.24 0 004.48-6.715 35.186 35.186 0 002.645-7.985z" fill="#010101"/><path d="M65.605 63.793h6.946v.953h-2.958v9.074h2.958v.953h-6.946v-.953h3.047v-9.074h-2.957l-.09-.953zm27.694 11.071h-1.613l-6.453-9.891v9.89h-1.03v-11.07h1.612l6.498 9.936v-9.936h1.03l-.044 11.07zm15.057-10.118h-3.854v-.953h8.962v.953h-4.033v10.118h-1.03l-.045-10.118zm15.46-.953h6.946v.953h-2.958v9.074h2.958v.953h-6.946v-.953h3.092v-9.074h-2.958l-.134-.953zm28.321 1.225l-3.674 6.76h-1.3l-3.719-6.76v9.846h-.986V63.793h1.568l3.809 7.033 3.81-7.033h1.568v11.07h-1.031l-.045-9.845zm16.491-1.225h1.434l4.481 11.07h-1.075l-1.12-2.676h-6.05l-1.076 2.677h-1.075l4.481-11.071zm-1.927 7.486h5.288l-2.644-6.533-2.644 6.533zm20.524-6.533h-4.078v-.953h8.963v.953h-4.078v10.118h-1.031l.224-10.118zm23.93 10.118h-7.842V63.793h7.842v.953h-6.811v3.993h5.915v.907h-5.915v4.265h6.811v.953zm25.543-1.452a5.732 5.732 0 01-1.479-4.084 5.762 5.762 0 011.479-4.083 5.018 5.018 0 011.777-1.227 4.965 4.965 0 012.122-.361 5.9 5.9 0 012.42.499 4.902 4.902 0 011.658 1.27c.336.443.607.932.806 1.452.183.4.289.83.314 1.27h-1.031a3.286 3.286 0 00-.493-1.406 5.372 5.372 0 00-.761-.998 3.762 3.762 0 00-1.21-.772 4.08 4.08 0 00-1.703-.317 3.806 3.806 0 00-1.719.29 3.855 3.855 0 00-1.418 1.026 5.393 5.393 0 00-1.169 3.357c0 1.221.412 2.406 1.169 3.358.387.452.87.81 1.413 1.046a3.86 3.86 0 001.724.315 4.083 4.083 0 001.703-.363 3.15 3.15 0 001.21-.772c.291-.3.547-.636.761-.998.261-.412.429-.876.493-1.36h1.031a4.037 4.037 0 01-.314 1.27c-.2.505-.472.98-.806 1.406a4.901 4.901 0 01-1.658 1.27 5.9 5.9 0 01-2.42.5 4.832 4.832 0 01-2.127-.348 4.886 4.886 0 01-1.772-1.24zm23.661-9.619h1.434l4.481 11.07h-1.076l-1.075-2.676h-6.095l-1.075 2.677h-1.076l4.482-11.071zm-1.927 7.486h5.288l-2.375-6.533-2.913 6.533zm27.425 3.585h-1.165l-2.823-4.537h-3.63v4.537h-1.031v-11.07h4.481a4.047 4.047 0 012.779.907 3.045 3.045 0 01.985 2.45c.069.436.069.88 0 1.316a3.5 3.5 0 01-.582.907c-.182.23-.411.415-.672.544-.272.22-.597.361-.941.409l2.599 4.537zm-7.618-10.118v4.81h3.316a3.063 3.063 0 002.016-.636 2.132 2.132 0 00.717-1.77 2.29 2.29 0 00-.717-1.769 3.064 3.064 0 00-2.016-.635h-3.316zm27.111 10.118h-7.887V63.793h7.887v.953h-6.856v3.993h5.96v.907h-5.96v4.265h6.856v.953z" fill="#050A02"/></g><defs><clipPath id="clip0_499_1891"><path fill="#fff" d="M0 0h371v75H0z"/></clipPath></defs></svg>