<svg width="22" height="13" fill="none" xmlns="http://www.w3.org/2000/svg"><g clip-path="url(#clip0_560_125)"><path d="M0 .49C.106.137.367.008.704.006 1.577.002 2.45.004 3.324.004c.392 0 .676.188.829.546.176.412.323.836.488 1.253.603 1.517 1.317 2.975 2.279 4.296.203.28.432.542.67.792.136.143.303.269.477.362.32.171.553.045.631-.314a.832.832 0 00.022-.172c.002-1.35.014-2.699-.004-4.047a2.374 2.374 0 00-.55-1.479 3.824 3.824 0 01-.273-.363c-.246-.389-.028-.83.427-.873C8.384 0 8.45 0 8.514 0h3.565c.568 0 .763.184.766.768.008 1.567.004 3.134.008 4.701 0 .144.008.292.036.432.075.368.335.52.647.324a4.18 4.18 0 00.888-.742c1.024-1.15 1.781-2.481 2.458-3.862.152-.31.294-.628.434-.945.195-.444.525-.674 1.006-.674.83 0 1.66-.001 2.491.002.1 0 .202.009.297.033.337.084.51.304.414.64a7.187 7.187 0 01-.497 1.311c-.764 1.49-1.71 2.863-2.662 4.233-.481.694-.454.868.126 1.492.864.929 1.723 1.862 2.553 2.822.308.356.563.771.779 1.193.404.792.104 1.26-.776 1.264-.738.004-1.475-.014-2.212.006a1.512 1.512 0 01-1.192-.491c-.478-.5-.927-1.03-1.425-1.51a25.055 25.055 0 00-1.652-1.45c-.336-.27-.722-.471-1.182-.445-.324.019-.463.125-.494.45-.031.332-.04.667-.043 1-.005.514.006 1.03.003 1.544-.003.472-.167.73-.628.788-.578.072-1.175.126-1.75.065-2.226-.233-4.015-1.352-5.54-2.948-1.008-1.054-1.786-2.283-2.537-3.527C1.483 4.962.698 3.386.2 1.678c-.077-.263-.134-.53-.2-.796V.49z" fill="#393939"/></g><defs><clipPath id="clip0_560_125"><path fill="#fff" d="M0 0h22v13H0z"/></clipPath></defs></svg>