<svg width="88" height="71" fill="none" xmlns="http://www.w3.org/2000/svg"><path d="M13.6 68.768C6.88 64.032 2.72 57.632 2.72 45.536c0-16.704 10.24-36.48 27.392-42.944L30.56.8C12.192 6.88.928 27.616.928 45.536c0 13.056 4.736 20.032 12.224 25.024l.448-1.792zm12.263-9.088L65.607 7.2h-2.176L23.687 59.68h2.176zm31.819 10.88c18.304-6.08 29.632-26.816 29.632-44.736C87.314 12.768 82.578 5.792 75.09.8l-.448 1.792c6.72 4.736 10.816 11.136 10.816 23.232 0 16.704-10.24 36.48-27.328 42.944l-.448 1.792z" fill="#000"/></svg>