<svg width="84" height="24" fill="none" xmlns="http://www.w3.org/2000/svg"><path d="M1.505 5.602c4.332 8.981 10.5 13.769 18.76 14.845 8.261 1.076 15.31-2.301 21.515-10.132l1.175 1.633a24.134 24.134 0 01-9.92 8.891 23.82 23.82 0 01-13.072 2.227A23.91 23.91 0 017.71 17.95 24.305 24.305 0 010 7.049l1.505-1.447z" fill="#020A0A"/><path d="M82.458 20.039c-3.671-9.353-9.655-14.66-17.806-16.293a22.13 22.13 0 00-12.176.976 22.374 22.374 0 00-9.852 7.3l-1.064-1.707a23.891 23.891 0 0110.454-7.972 23.622 23.622 0 0113.042-1.195 25.388 25.388 0 0111.86 6.264A25.799 25.799 0 0184 18.888l-1.542 1.15z" fill="#020A0A"/></svg>